<svg xmlns="http://www.w3.org/2000/svg" width="37" height="37" viewBox="0 0 37 37"><defs><style>.a{fill:none;}.b{fill:#0f223c;}</style></defs><g transform="translate(0 0.124)"><g transform="translate(0 0.074)"><rect class="a" width="37" height="37" transform="translate(0 -0.198)"/><rect class="a" width="37" height="37" transform="translate(0 -0.198)"/><rect class="a" width="37" height="37" transform="translate(0 -0.198)"/></g><g transform="translate(1.705 5.037)"><path class="b" d="M15.141,8.956,18.862,12.5l.836.887H32.383V29.645H5.038V8.956h10.1M16.432,6H3.519A1.5,1.5,0,0,0,2,7.478V31.123A1.5,1.5,0,0,0,3.519,32.6H33.9a1.5,1.5,0,0,0,1.519-1.478V11.911A1.5,1.5,0,0,0,33.9,10.434H20.989Z" transform="translate(-2 -6)"/><path class="b" d="M27.23,24.263H24.673V21.705a1.705,1.705,0,0,0-3.41,0v2.558H18.705a1.705,1.705,0,0,0,0,3.41h2.558V30.23a1.705,1.705,0,0,0,3.41,0V27.673H27.23a1.705,1.705,0,1,0,0-3.41Z" transform="translate(-6.257 -10.667)"/></g></g></svg>