<svg xmlns="http://www.w3.org/2000/svg" width="18" height="18" viewBox="0 0 18 18"><defs><style>.a{fill:none;}.b{fill:#dfe7eb;}</style></defs><g transform="translate(-1228 -143)"><g transform="translate(1228 142.991)"><g transform="translate(0 -0.1)"><rect class="a" width="18" height="18" transform="translate(0 0.108)"/></g><g transform="translate(0.745 0.863)"><path class="b" d="M17.648,4.221H14.295V2.768a.782.782,0,0,0-.633-.782.745.745,0,0,0-.857.745v1.49H7.588V2.768a.782.782,0,0,0-.633-.782.745.745,0,0,0-.857.745v1.49H2.745A.745.745,0,0,0,2,4.966V16.888a.745.745,0,0,0,.745.745h14.9a.745.745,0,0,0,.745-.745V4.966A.745.745,0,0,0,17.648,4.221ZM16.9,16.143H3.49V8.692H16.9Zm0-8.941H3.49V5.711H16.9Z" transform="translate(-2 -1.977)"/></g></g></g></svg>