<svg xmlns="http://www.w3.org/2000/svg" width="35" height="35" viewBox="0 0 35 35"><defs><style>.a{fill:none;}.b{fill:#0f223c;}</style></defs><rect class="a" width="35" height="35"/><g transform="translate(1.622 1.604)"><path class="b" d="M28.925,23.484a1.541,1.541,0,0,0-2.271,0l-6.975,6.975-2.92-2.92a1.622,1.622,0,0,0-2.514.162,1.784,1.784,0,0,0,.324,2.19l3.974,3.974a1.541,1.541,0,0,0,2.271,0l8.111-8.111a1.541,1.541,0,0,0,0-2.271Zm0,0a1.541,1.541,0,0,0-2.271,0l-6.975,6.975-2.92-2.92a1.622,1.622,0,0,0-2.514.162,1.784,1.784,0,0,0,.324,2.19l3.974,3.974a1.541,1.541,0,0,0,2.271,0l8.111-8.111a1.541,1.541,0,0,0,0-2.271Z" transform="translate(-6.139 -8.868)"/><path class="b" d="M32.35,6.3h-6.5V3.5a1.511,1.511,0,0,0-1.228-1.509,1.451,1.451,0,0,0-1.165.336,1.433,1.433,0,0,0-.5,1.1V6.3H12.839V3.5a1.511,1.511,0,0,0-1.228-1.509,1.451,1.451,0,0,0-1.165.336,1.433,1.433,0,0,0-.5,1.1V6.3h-6.5A1.441,1.441,0,0,0,2,7.741v22.99a1.441,1.441,0,0,0,1.445,1.437h28.9a1.441,1.441,0,0,0,1.445-1.437V7.741A1.441,1.441,0,0,0,32.35,6.3ZM30.9,29.294H4.89V14.926H30.9Zm0-17.243H4.89V9.178H30.9Z" transform="translate(-2 -1.977)"/></g></svg>