<svg xmlns="http://www.w3.org/2000/svg" width="79" height="45" viewBox="0 0 79 45"><defs><style>.a,.b,.f{fill:none;}.a{stroke:#26bfaf;stroke-linecap:round;stroke-width:2.5px;}.b{stroke:#e5e5e5;}.c{fill:#0f223c;}.d{fill:#fff;}.e{stroke:none;}</style></defs><g transform="translate(48 16)"><g transform="translate(0)"><line class="a" x2="15.38" transform="translate(0.119)"/><line class="a" x2="16" transform="translate(0 6.499)"/><line class="a" x2="16" transform="translate(0 13)"/></g></g><g class="b"><rect class="e" width="79" height="45" rx="5"/><rect class="f" x="0.5" y="0.5" width="78" height="44" rx="4.5"/></g><g transform="translate(12 10)"><rect class="c" width="24" height="24" rx="12" transform="translate(0 0)"/><g transform="translate(7.559 6.081)"><g transform="translate(1.926)"><circle class="d" cx="2.515" cy="2.515" r="2.515"/></g><g transform="translate(0 6.182)"><path class="d" d="M2.918,0H5.963A2.918,2.918,0,0,1,8.881,2.918V5.656a0,0,0,0,1,0,0H0a0,0,0,0,1,0,0V2.918A2.918,2.918,0,0,1,2.918,0Z" transform="translate(0 0)"/></g></g></g></svg>