<svg xmlns="http://www.w3.org/2000/svg" width="18" height="18" viewBox="0 0 18 18"><defs><style>.a{fill:none;}.b{fill:#0f223c;}</style></defs><g transform="translate(0 -0.037)"><g transform="translate(0 0.037)"><rect class="a" width="18" height="18"/></g><g transform="translate(1.51 1.506)"><path class="b" d="M19.1,18.35V4.755A.755.755,0,0,0,18.35,4H4.755A.755.755,0,0,0,4,4.755V6.643a.755.755,0,0,0,.869.755.793.793,0,0,0,.642-.793v-1.1H17.594V17.595H5.51V16.462a.755.755,0,0,0-.869-.755A.793.793,0,0,0,4,16.5v1.85a.755.755,0,0,0,.755.755H18.35A.755.755,0,0,0,19.1,18.35Z" transform="translate(-4 -4)"/><path class="b" d="M10.986,21.082l3.361-3.4a.717.717,0,0,0,0-1.057l-3.361-3.4a.793.793,0,0,0-1.02-.076.717.717,0,0,0-.076,1.133L12.006,16.4H4.755a.755.755,0,1,0,0,1.511h7.25L9.891,20.025a.717.717,0,0,0,.076,1.133.793.793,0,0,0,1.02-.076Z" transform="translate(-4 -9.602)"/></g></g></svg>