<svg xmlns="http://www.w3.org/2000/svg" width="42.04" height="42.04" viewBox="0 0 42.04 42.04"><defs><style>.a{fill:#00bfaf;}</style></defs><path class="a" d="M609.156,398.756h4.594v-4.594a8.213,8.213,0,0,1,16.426,0v4.594h4.594a8.213,8.213,0,1,1,0,16.426h-4.594v4.594a8.213,8.213,0,0,1-16.426,0v-4.594h-4.594a8.213,8.213,0,1,1,0-16.426Zm.118,12.25h10.461a2.088,2.088,0,0,1,2.088,2.088h0a2.088,2.088,0,0,1-2.088,2.088h-1.809v4.475a4.116,4.116,0,0,0,3.648,4.137A4.041,4.041,0,0,0,626,419.776V409.2a2.088,2.088,0,0,1,2.088-2.088h0a2.088,2.088,0,0,1,2.088,2.088v1.81h4.475a4.116,4.116,0,0,0,4.137-3.648,4.041,4.041,0,0,0-4.019-4.426h-10.58a2.088,2.088,0,0,1-2.088-2.088h0a2.088,2.088,0,0,1,2.088-2.088H626V394.28a4.115,4.115,0,0,0-3.648-4.137,4.041,4.041,0,0,0-4.426,4.019v10.58a2.088,2.088,0,0,1-2.088,2.088h0a2.088,2.088,0,0,1-2.088-2.088v-1.81h-4.594a4.042,4.042,0,0,0-4.019,4.426A4.116,4.116,0,0,0,609.275,411.006Z" transform="translate(-600.943 -385.949)"/></svg>