<svg xmlns="http://www.w3.org/2000/svg" width="20" height="20" viewBox="0 0 20 20"><defs><style>.a{fill:none;}.b{fill:#dfe7eb;}</style></defs><g transform="translate(0 0.548)"><g transform="translate(0 -0.548)"><rect class="a" width="20" height="20"/></g><g transform="translate(1.436 1.699)"><path class="b" d="M14.551,13.636a5.946,5.946,0,0,0,1.205-4.379,6.106,6.106,0,0,0-5.544-5.3A6.036,6.036,0,1,0,9.008,15.966,6.146,6.146,0,0,0,13.427,14.8l5.022,4.981a.763.763,0,0,0,1.125,0h0a.763.763,0,0,0,0-1.125Zm-4.057.723A4.419,4.419,0,0,1,5.432,9.217a4.405,4.405,0,1,1,8.677,1.527,4.459,4.459,0,0,1-3.616,3.616Z" transform="translate(-3.574 -3.924)"/></g></g></svg>