<svg xmlns="http://www.w3.org/2000/svg" width="140.206" height="42.04" viewBox="0 0 140.206 42.04">
  <g id="Group_7214" data-name="Group 7214" transform="translate(-3501.561 -7307.281)">
    <g id="WEllbe" transform="translate(-3)" style="isolation: isolate">
      <g id="Group_7212" data-name="Group 7212" style="isolation: isolate">
        <path id="Path_760" data-name="Path 760" d="M3579.793,7320.656l-4.325,17.625h-6.025l-2.425-10.8-2.475,10.8h-6.025l-4.275-17.625h5.3l2.05,12.049,2.775-12.049h5.375l2.7,11.95,2.05-11.95Z" fill="#0f223c"/>
        <path id="Path_761" data-name="Path 761" d="M3586.768,7324.58v2.875h5.625v3.726h-5.625v3.175h6.375v3.925h-11.275v-17.625h11.275v3.924Z" fill="#0f223c"/>
        <path id="Path_762" data-name="Path 762" d="M3600.467,7334.531h5.475v3.75h-10.375v-17.625h4.9Z" fill="#0f223c"/>
        <path id="Path_763" data-name="Path 763" d="M3612.742,7334.531h5.475v3.75h-10.375v-17.625h4.9Z" fill="#0f223c"/>
      </g>
      <g id="Group_7213" data-name="Group 7213" style="isolation: isolate">
        <path id="Path_764" data-name="Path 764" d="M3631.392,7330.755a4.316,4.316,0,0,1,1.025,2.851,4.422,4.422,0,0,1-.662,2.387,4.523,4.523,0,0,1-1.938,1.675,6.988,6.988,0,0,1-3.05.613h-6.05v-17.475h5.875a5.924,5.924,0,0,1,4.038,1.225,4.037,4.037,0,0,1,1.387,3.174,3.886,3.886,0,0,1-.875,2.638,4.574,4.574,0,0,1-2.25,1.412A4.2,4.2,0,0,1,3631.392,7330.755Zm-8.925-2.224h4.075a4.041,4.041,0,0,0,2.737-.838,2.9,2.9,0,0,0,.963-2.313,2.836,2.836,0,0,0-.963-2.274,4.211,4.211,0,0,0-2.812-.825h-4Zm7.137,7.375a3.071,3.071,0,0,0,1.063-2.475,3.119,3.119,0,0,0-1.112-2.513,4.489,4.489,0,0,0-2.988-.937h-4.1v6.825h4.175A4.452,4.452,0,0,0,3629.6,7335.906Z" fill="#0f223c"/>
        <path id="Path_765" data-name="Path 765" d="M3637.392,7322.231v6.524h6.625v1.45h-6.625v6.625h7.375v1.451h-9.125v-17.5h9.125v1.45Z" fill="#0f223c"/>
      </g>
    </g>
    <path id="Path_1" data-name="Path 1" d="M3509.781,7320.088h4.594v-4.594a8.213,8.213,0,1,1,16.426,0v4.594h4.594a8.213,8.213,0,0,1,.014,16.426H3530.8v4.594a8.213,8.213,0,0,1-16.426,0v-4.594h-4.594a8.213,8.213,0,0,1-.014-16.426Zm.118,12.25h10.461a2.088,2.088,0,0,1,2.088,2.088h0a2.088,2.088,0,0,1-2.088,2.088h-1.809v4.475a4.115,4.115,0,0,0,3.648,4.137,4.041,4.041,0,0,0,4.407-3.638,3.72,3.72,0,0,0,.019-.38v-10.576a2.088,2.088,0,0,1,2.088-2.088h0a2.088,2.088,0,0,1,2.088,2.088h0v1.81h4.475a4.117,4.117,0,0,0,4.137-3.648,4.042,4.042,0,0,0-3.638-4.408q-.19-.018-.381-.018h-10.58a2.088,2.088,0,0,1-2.088-2.088h0a2.088,2.088,0,0,1,2.088-2.088h1.811v-4.48a4.114,4.114,0,0,0-3.648-4.137,4.041,4.041,0,0,0-4.408,3.637q-.018.19-.018.382v10.58a2.088,2.088,0,0,1-2.088,2.088h0a2.088,2.088,0,0,1-2.088-2.088h0v-1.81h-4.594a4.04,4.04,0,0,0-4.037,4.046c0,.127.006.254.018.38a4.116,4.116,0,0,0,4.138,3.648Z" fill="#00bfaf"/>
  </g>
</svg>
